<?xml version="1.0" encoding="utf-8"?>
<!-- Generator: Adobe Illustrator 22.1.0, SVG Export Plug-In . SVG Version: 6.00 Build 0)  -->
<svg version="1.1" id="Layer_1" xmlns="http://www.w3.org/2000/svg" xmlns:xlink="http://www.w3.org/1999/xlink" x="0px" y="0px"
	 viewBox="0 0 1000 1000" style="enable-background:new 0 0 1000 1000;" xml:space="preserve">
<style type="text/css">
	.st0{fill:none;}
	.st1{fill:none;stroke:#000000;stroke-width:7.2;}
	.st2{fill:#F9B5B0;}
	.st3{fill:#FFFFFF;}
	.st4{fill:#EC008C;}
	.st5{font-family:'Bangers-Regular';}
	.st6{font-size:72px;}
	.st7{fill:url(#SVGID_1_);}
	.st8{fill:#F1F2F2;}
</style>
<pattern  width="72" height="72" patternUnits="userSpaceOnUse" id="_x36__lpi_60_x25_" viewBox="72.2 -72 72 72" style="overflow:visible;">
	<g>
		<rect x="72.2" y="-72" class="st0" width="72" height="72"/>
		<g>
			<line class="st1" x1="144" y1="-6" x2="216.5" y2="-6"/>
			<line class="st1" x1="144" y1="-30" x2="216.5" y2="-30"/>
			<line class="st1" x1="144" y1="-54" x2="216.5" y2="-54"/>
			<line class="st1" x1="144" y1="-18" x2="216.5" y2="-18"/>
			<line class="st1" x1="144" y1="-42" x2="216.5" y2="-42"/>
			<line class="st1" x1="144" y1="-66" x2="216.5" y2="-66"/>
		</g>
		<g>
			<line class="st1" x1="72" y1="-6" x2="144.5" y2="-6"/>
			<line class="st1" x1="72" y1="-30" x2="144.5" y2="-30"/>
			<line class="st1" x1="72" y1="-54" x2="144.5" y2="-54"/>
			<line class="st1" x1="72" y1="-18" x2="144.5" y2="-18"/>
			<line class="st1" x1="72" y1="-42" x2="144.5" y2="-42"/>
			<line class="st1" x1="72" y1="-66" x2="144.5" y2="-66"/>
		</g>
		<g>
			<line class="st1" x1="0" y1="-6" x2="72.5" y2="-6"/>
			<line class="st1" x1="0" y1="-30" x2="72.5" y2="-30"/>
			<line class="st1" x1="0" y1="-54" x2="72.5" y2="-54"/>
			<line class="st1" x1="0" y1="-18" x2="72.5" y2="-18"/>
			<line class="st1" x1="0" y1="-42" x2="72.5" y2="-42"/>
			<line class="st1" x1="0" y1="-66" x2="72.5" y2="-66"/>
		</g>
	</g>
</pattern>
<rect x="-11.1" y="-6.8" class="st2" width="1028.8" height="1028.8"/>
<path class="st3" d="M817.6,401.2c1.8-15.3,2.7-31,2.7-46.9h-56.8C763.5,519,642.1,652.5,492.4,652.5S221.2,519,221.1,354.3h-56.8
	c0,164.8,100.5,303.8,237.7,346.9l-79.3,8.4l13.8,17.2h156.1h156.1l6.1-17.6l-72.6-7.9c68.3-21.4,127.6-66.5,169.9-126.8
	c56.4,1.8,86.2-12.9,108.8-61.9C879,473.8,860.6,416.3,817.6,401.2z M844.5,510.7c-22.8,38.4-42.3,48.6-82.2,48.6
	c26.4-41.9,44.9-90.3,53.2-142.5C849.3,431.2,862.2,480.9,844.5,510.7z"/>
<text transform="matrix(1 0 0 1 366.2003 848.8418)" class="st4 st5 st6">affogato</text>
<g>
	<path class="st3" d="M480.1,98.6c0.8,0.5,1.6,1,2.4,1.6c0.8,0.5,1.6,1.1,2.4,1.7c1.5,1.2,3.1,2.3,4.6,3.7c3,2.5,5.7,5.4,8.2,8.5
		c5,6.2,8.9,13.5,10.7,21.7c0.9,4.1,1.2,8.3,1,12.5c-0.2,4.2-0.9,8.3-1.9,12.2c-2,7.8-4.8,15-7.5,22.2c-1.4,3.5-2.8,7.2-4.4,10.8
		c-1.6,3.6-3.3,7.2-5.2,10.6l-2.7,5c-0.8,1.6-1.6,3.1-2.2,4.6c-0.6,1.5-1,3.1-1.3,4.8c-0.3,1.7-0.5,3.4-0.6,5.2
		c-0.4,7,1,14.2,3.6,21.2c2.5,7,6.1,13.7,9.9,20.5c-1.4-1.4-2.7-2.7-4.1-4.2c-1.3-1.5-2.6-2.9-3.8-4.5c-2.5-3-4.6-6.3-6.6-9.8
		c-3.9-6.9-6.6-14.8-6.9-23.2c-0.1-2.1,0-4.2,0.2-6.3c0.2-2.1,0.6-4.3,1.2-6.4c0.6-2.1,1.5-4.1,2.3-5.9l2.5-5.2
		c3.3-6.8,6-13.6,8.7-20.7c1.4-3.6,2.8-7.1,4.1-10.6c1.3-3.5,2.6-7,3.6-10.5c1.1-3.5,1.8-6.9,2.3-10.4c0.4-3.4,0.4-6.9,0-10.4
		c-0.9-7-3.4-13.9-7.1-20.3C490,110.3,485.3,104.4,480.1,98.6z"/>
</g>
<g>
	<path class="st3" d="M444.5,154.3c1.4,0.9,2.8,1.7,4.2,2.7c1.3,1,2.7,2,4,3.1c2.6,2.1,5,4.6,7.2,7.2c4.4,5.3,7.8,11.6,9.5,18.7
		c0.8,3.5,1.1,7.2,1,10.8c-0.1,3.6-0.8,7.2-1.6,10.5c-1.7,6.8-4.1,13-6.4,19.1c-1.2,3-2.4,6.2-3.8,9.3c-1.4,3.1-2.9,6.1-4.5,9.1
		l-2.3,4.3c-0.7,1.4-1.4,2.6-1.9,3.9c-0.5,1.3-0.9,2.5-1.1,4c-0.3,1.4-0.5,2.9-0.6,4.3c-0.4,5.9,0.7,12,2.8,18c2,6,5,11.8,8.2,17.6
		c-1.2-1.1-2.4-2.3-3.6-3.5c-1.1-1.2-2.3-2.5-3.3-3.8c-2.2-2.6-4.1-5.4-5.8-8.3c-3.4-5.9-5.8-12.7-6.2-20c-0.1-1.8-0.1-3.6,0.1-5.5
		c0.2-1.8,0.5-3.8,1.1-5.6c0.5-1.9,1.3-3.6,2-5.2l2.1-4.5c2.8-5.8,5.1-11.6,7.4-17.7c1.2-3,2.4-6.1,3.5-9.1c1.2-3,2.2-6,3.1-8.9
		c0.9-2.9,1.6-5.9,2-8.8c0.4-2.9,0.4-5.8,0.1-8.8c-0.7-5.9-2.7-11.8-5.8-17.3C452.8,164.5,448.9,159.3,444.5,154.3z"/>
</g>
<g>
	<path class="st3" d="M507.9,211.2c5.6,2,10.9,4.8,15.8,8.6c2.4,1.9,4.7,4,6.8,6.5c2,2.5,3.8,5.2,5.1,8.4c1.3,3.1,2,6.6,1.9,10.1
		c0,3.5-0.8,6.9-1.8,9.9c-2.1,6.1-5,11.3-7.7,16.5c-1.4,2.5-2.9,5.2-4.5,7.8c-1.6,2.6-3.4,5.1-5.2,7.5c-1.8,2.4-3.7,4.7-4.8,6.5
		c-0.6,0.9-0.9,1.9-1.2,3c-0.3,1.1-0.5,2.3-0.6,3.5c-0.4,4.8,1.3,10,3.8,14.9c2.6,5,6.1,9.7,9.7,14.4c-1.3-0.8-2.5-1.6-3.7-2.5
		c-1.2-0.9-2.4-1.8-3.5-2.8c-2.3-1.9-4.5-4.1-6.5-6.4c-2-2.4-3.7-5-5.1-8c-1.4-2.9-2.3-6.2-2.5-9.7c-0.1-1.7,0-3.5,0.3-5.2
		c0.3-1.7,0.8-3.6,1.6-5.3c0.8-1.7,1.7-3.1,2.5-4.4l2.4-3.7c1.6-2.4,3.1-4.7,4.5-7.1c1.4-2.4,2.7-4.9,4.2-7.5
		c1.4-2.5,2.8-5.1,4.1-7.6c1.3-2.5,2.5-5,3.5-7.4c1-2.4,1.7-4.8,1.9-7.1c0.2-2.3,0.1-4.7-0.5-7.1c-1.2-4.8-4.2-9.6-7.8-13.8
		C516.7,219,512.4,215.1,507.9,211.2z"/>
</g>
<path class="st0" d="M722.1,366.7H261.2c0,0.2,0,0.3,0,0.5h460.8C722.1,367,722.1,366.9,722.1,366.7z"/>
<path class="st3" d="M722.1,367.2H261.2c0.2,132.2,103.3,239.3,230.4,239.3S721.8,499.4,722.1,367.2z M595.7,561.2
	c-6.7,5.9-14.6,9-22.9,9c0,0,0,0,0,0c-6,0-12.1-1.6-18.2-4.8c-4-2.1-8.5-3.6-13-4.5c-0.5,0.3-1.3,0.9-2.6,1.9
	c-0.5,0.4-1.3,1.6-2,2.5c-0.9,1.3-2,2.8-3.4,4.3c-5.1,5.4-10.7,8.2-16.7,8.2c-5.7,0-11.2-2.5-16.4-7.6c-1.6-1.5-3-3.1-4.3-4.6
	c-1-1.1-1.8-2-2.7-3c-2.4-2.4-3.4-2.7-3.4-2.7c0,0-1.1,0-4.1,2.1c-0.5,0.4-1.1,0.7-1.6,1.1c-3.9,2.6-8.2,5.6-13.4,7.5
	c-3.2,1.2-6.5,1.8-9.8,1.8c-7.2,0-14-2.9-19.7-8.4c-1.5-1.5-2.9-2.9-4.3-4.3c-1.3-1.4-2.6-2.7-3.9-4c-0.9-0.8-1.4-1.2-1.8-1.4
	c-0.4,0.1-1,0.4-2.1,1.1c-1.5,0.9-3,1.9-4.6,3c-1.8,1.2-3.7,2.5-5.7,3.8c-5.4,3.3-11.5,5-17.9,5c-9.1,0-17.7-3.5-24.2-9.7
	c-7.5-7.2-10.2-17.1-7.5-27.3c1.7-6.5,4.1-15.4,10-22.1c5.4-6.2,7.2-12.6,6-21.5c-3.2-23.6,3.1-47.8,17.9-68.1
	c14.9-20.6,36.8-34.9,61.8-40.4c7.4-1.6,14.9-2.4,22.4-2.4c45.8,0,86.5,30.1,98.8,73.2c2,6.9,2.8,13.8,3.7,20.5
	c0.4,3,0.7,5.8,1.2,8.5l1.5,9.7l-2.8,0.5c-0.1,3-0.3,6.1-0.8,9.2c-0.7,4.7,0.4,8.8,3.9,13.6c4,5.7,8.2,11.8,11,18.8
	C608.6,541.2,605.5,552.6,595.7,561.2z"/>
<pattern  id="SVGID_1_" xlink:href="#_x36__lpi_60_x25_" patternTransform="matrix(0.6486 0 0 0.8997 -2605.1602 -797.0942)">
</pattern>
<path class="st7" d="M722.1,367.2H261.2c0.2,132.2,103.3,239.3,230.4,239.3S721.8,499.4,722.1,367.2z M595.7,561.2
	c-6.7,5.9-14.6,9-22.9,9c0,0,0,0,0,0c-6,0-12.1-1.6-18.2-4.8c-4-2.1-8.5-3.6-13-4.5c-0.5,0.3-1.3,0.9-2.6,1.9
	c-0.5,0.4-1.3,1.6-2,2.5c-0.9,1.3-2,2.8-3.4,4.3c-5.1,5.4-10.7,8.2-16.7,8.2c-5.7,0-11.2-2.5-16.4-7.6c-1.6-1.5-3-3.1-4.3-4.6
	c-1-1.1-1.8-2-2.7-3c-2.4-2.4-3.4-2.7-3.4-2.7c0,0-1.1,0-4.1,2.1c-0.5,0.4-1.1,0.7-1.6,1.1c-3.9,2.6-8.2,5.6-13.4,7.5
	c-3.2,1.2-6.5,1.8-9.8,1.8c-7.2,0-14-2.9-19.7-8.4c-1.5-1.5-2.9-2.9-4.3-4.3c-1.3-1.4-2.6-2.7-3.9-4c-0.9-0.8-1.4-1.2-1.8-1.4
	c-0.4,0.1-1,0.4-2.1,1.1c-1.5,0.9-3,1.9-4.6,3c-1.8,1.2-3.7,2.5-5.7,3.8c-5.4,3.3-11.5,5-17.9,5c-9.1,0-17.7-3.5-24.2-9.7
	c-7.5-7.2-10.2-17.1-7.5-27.3c1.7-6.5,4.1-15.4,10-22.1c5.4-6.2,7.2-12.6,6-21.5c-3.2-23.6,3.1-47.8,17.9-68.1
	c14.9-20.6,36.8-34.9,61.8-40.4c7.4-1.6,14.9-2.4,22.4-2.4c45.8,0,86.5,30.1,98.8,73.2c2,6.9,2.8,13.8,3.7,20.5
	c0.4,3,0.7,5.8,1.2,8.5l1.5,9.7l-2.8,0.5c-0.1,3-0.3,6.1-0.8,9.2c-0.7,4.7,0.4,8.8,3.9,13.6c4,5.7,8.2,11.8,11,18.8
	C608.6,541.2,605.5,552.6,595.7,561.2z"/>
<path class="st8" d="M580.5,479.9c0.4-0.1,0.7-0.1,1.1-0.2c-1.5-9.3-2-18.9-4.6-27.9c-13.3-46.5-61.8-74.2-109.5-63.8
	c-47.1,10.4-77.8,54.4-71.9,97.4c1.5,11-0.6,20.6-8.4,29.4c-4.1,4.7-6.1,11.8-7.8,18.1c-1.7,6.3-0.3,12.6,4.8,17.5
	c8,7.7,20.4,9.2,29.9,3.4c3.5-2.1,6.7-4.7,10.2-6.8c6.5-4,10.6-3.6,16,1.6c2.8,2.7,5.4,5.6,8.2,8.4c5.4,5.2,12,7,19,4.4
	c4.6-1.7,8.8-4.8,12.9-7.6c8.1-5.5,13.3-5.1,20.2,1.9c2.3,2.4,4.5,5,6.9,7.3c6.6,6.4,12.5,6.3,18.8-0.3c2.3-2.4,3.9-5.6,6.4-7.7
	c2.6-2.1,6.2-4.7,8.9-4.3c6,0.9,12.2,3,17.6,5.8c10.6,5.5,21,4.9,29.8-2.9c6.2-5.5,8.7-12.4,5.7-20.1c-2.3-5.9-6.1-11.4-9.8-16.7
	c-4.6-6.4-6.8-13-5.6-20.9C580.2,490.7,580.2,485.3,580.5,479.9z"/>
</svg>
