<?xml version="1.0" encoding="utf-8"?>
<!-- Generator: Adobe Illustrator 22.1.0, SVG Export Plug-In . SVG Version: 6.00 Build 0)  -->
<svg version="1.1" id="Layer_1" xmlns="http://www.w3.org/2000/svg" xmlns:xlink="http://www.w3.org/1999/xlink" x="0px" y="0px"
	 viewBox="0 0 1000 1000" style="enable-background:new 0 0 1000 1000;" xml:space="preserve">
<style type="text/css">
	.st0{fill:none;}
	.st1{fill:none;stroke:#000000;stroke-width:7.2;}
	.st2{fill:#FDBA4A;}
	.st3{clip-path:url(#SVGID_2_);fill:#FFFFFF;}
	.st4{clip-path:url(#SVGID_4_);fill:url(#SVGID_5_);}
	.st5{fill:#FFFFFF;}
	.st6{fill:#EF4136;}
	.st7{font-family:'Bangers-Regular';}
	.st8{font-size:72px;}
	.st9{fill:#BE1E2D;}
</style>
<pattern  width="72" height="72" patternUnits="userSpaceOnUse" id="_x36__lpi_60_x25_" viewBox="72.2 -72 72 72" style="overflow:visible;">
	<g>
		<rect x="72.2" y="-72" class="st0" width="72" height="72"/>
		<g>
			<line class="st1" x1="144" y1="-6" x2="216.5" y2="-6"/>
			<line class="st1" x1="144" y1="-30" x2="216.5" y2="-30"/>
			<line class="st1" x1="144" y1="-54" x2="216.5" y2="-54"/>
			<line class="st1" x1="144" y1="-18" x2="216.5" y2="-18"/>
			<line class="st1" x1="144" y1="-42" x2="216.5" y2="-42"/>
			<line class="st1" x1="144" y1="-66" x2="216.5" y2="-66"/>
		</g>
		<g>
			<line class="st1" x1="72" y1="-6" x2="144.5" y2="-6"/>
			<line class="st1" x1="72" y1="-30" x2="144.5" y2="-30"/>
			<line class="st1" x1="72" y1="-54" x2="144.5" y2="-54"/>
			<line class="st1" x1="72" y1="-18" x2="144.5" y2="-18"/>
			<line class="st1" x1="72" y1="-42" x2="144.5" y2="-42"/>
			<line class="st1" x1="72" y1="-66" x2="144.5" y2="-66"/>
		</g>
		<g>
			<line class="st1" x1="0" y1="-6" x2="72.5" y2="-6"/>
			<line class="st1" x1="0" y1="-30" x2="72.5" y2="-30"/>
			<line class="st1" x1="0" y1="-54" x2="72.5" y2="-54"/>
			<line class="st1" x1="0" y1="-18" x2="72.5" y2="-18"/>
			<line class="st1" x1="0" y1="-42" x2="72.5" y2="-42"/>
			<line class="st1" x1="0" y1="-66" x2="72.5" y2="-66"/>
		</g>
	</g>
</pattern>
<rect x="-0.3" y="0.1" class="st2" width="1000" height="1000"/>
<g>
	<defs>
		<path id="SVGID_1_" d="M703.6,389.4c0,111.4-99,217.2-223.4,217.2S253.3,500.8,253.3,389.4"/>
	</defs>
	<use xlink:href="#SVGID_1_"  style="overflow:visible;fill:#FFFFFF;"/>
	<clipPath id="SVGID_2_">
		<use xlink:href="#SVGID_1_"  style="overflow:visible;"/>
	</clipPath>
	<rect x="249.2" y="405.3" class="st3" width="459.3" height="201.3"/>
</g>
<g>
	<defs>
		<path id="SVGID_3_" d="M703.6,389.4c0,111.4-99,217.2-223.4,217.2S253.3,500.8,253.3,389.4"/>
	</defs>
	<clipPath id="SVGID_4_">
		<use xlink:href="#SVGID_3_"  style="overflow:visible;"/>
	</clipPath>
	<pattern  id="SVGID_5_" xlink:href="#_x36__lpi_60_x25_" patternTransform="matrix(0.6337 0 0 0.757 -2726.3203 -1680.7769)">
	</pattern>
	<rect x="249.2" y="405.3" class="st4" width="459.3" height="201.3"/>
</g>
<path class="st5" d="M806.6,401.2c1.8-15.3,2.7-31,2.7-46.9h-56.8C752.5,519,631.1,652.5,481.4,652.5S210.2,519,210.1,354.3h-56.8
	c0,164.8,100.5,303.8,237.7,346.9l-79.3,8.4l13.8,17.2h156.1h156.1l6.1-17.6l-72.6-7.9c68.3-21.4,127.6-66.5,169.9-126.8
	c56.4,1.8,86.2-12.9,108.8-61.9C868,473.8,849.6,416.3,806.6,401.2z M833.5,510.7c-22.8,38.4-42.3,48.6-82.2,48.6
	c26.4-41.9,44.9-90.3,53.2-142.5C838.2,431.2,851.2,480.9,833.5,510.7z"/>
<rect x="149.3" y="805.1" class="st0" width="662" height="164.3"/>
<text transform="matrix(1 0 0 1 361.906 857.6416)" class="st6 st7 st8">espresso</text>
<path class="st9" d="M-93.5,262.4c0,157.9-123.1,286-274.9,286s-274.9-128-274.9-286"/>
<g>
	<path class="st5" d="M478.1,96.6c0.8,0.5,1.6,1,2.4,1.6c0.8,0.5,1.6,1.1,2.4,1.7c1.5,1.2,3.1,2.3,4.6,3.7c3,2.5,5.7,5.4,8.2,8.5
		c5,6.2,8.9,13.5,10.7,21.7c0.9,4.1,1.2,8.3,1,12.5c-0.2,4.2-0.9,8.3-1.9,12.2c-2,7.8-4.8,15-7.5,22.2c-1.4,3.5-2.8,7.2-4.4,10.8
		c-1.6,3.6-3.3,7.2-5.2,10.6l-2.7,5c-0.8,1.6-1.6,3.1-2.2,4.6c-0.6,1.5-1,3.1-1.3,4.8c-0.3,1.7-0.5,3.4-0.6,5.2
		c-0.4,7,1,14.2,3.6,21.2c2.5,7,6.1,13.7,9.9,20.5c-1.4-1.4-2.7-2.7-4.1-4.2c-1.3-1.5-2.6-2.9-3.8-4.5c-2.5-3-4.6-6.3-6.6-9.8
		c-3.9-6.9-6.6-14.8-6.9-23.2c-0.1-2.1,0-4.2,0.2-6.3c0.2-2.1,0.6-4.3,1.2-6.4c0.6-2.1,1.5-4.1,2.3-5.9l2.5-5.2
		c3.3-6.8,6-13.6,8.7-20.7c1.4-3.6,2.8-7.1,4.1-10.6c1.3-3.5,2.6-7,3.6-10.5c1.1-3.5,1.8-6.9,2.3-10.4c0.4-3.4,0.4-6.9,0-10.4
		c-0.9-7-3.4-13.9-7.1-20.3C488,108.3,483.3,102.4,478.1,96.6z"/>
</g>
<g>
	<path class="st5" d="M442.5,152.3c1.4,0.9,2.8,1.7,4.2,2.7c1.3,1,2.7,2,4,3.1c2.6,2.1,5,4.6,7.2,7.2c4.4,5.3,7.8,11.6,9.5,18.7
		c0.8,3.5,1.1,7.2,1,10.8c-0.1,3.6-0.8,7.2-1.6,10.5c-1.7,6.8-4.1,13-6.4,19.1c-1.2,3-2.4,6.2-3.8,9.3c-1.4,3.1-2.9,6.1-4.5,9.1
		l-2.3,4.3c-0.7,1.4-1.4,2.6-1.9,3.9c-0.5,1.3-0.9,2.5-1.1,4c-0.3,1.4-0.5,2.9-0.6,4.3c-0.4,5.9,0.7,12,2.8,18c2,6,5,11.8,8.2,17.6
		c-1.2-1.1-2.4-2.3-3.6-3.5c-1.1-1.2-2.3-2.5-3.3-3.8c-2.2-2.6-4.1-5.4-5.8-8.3c-3.4-5.9-5.8-12.7-6.2-20c-0.1-1.8-0.1-3.6,0.1-5.5
		c0.2-1.8,0.5-3.8,1.1-5.6c0.5-1.9,1.3-3.6,2-5.2l2.1-4.5c2.8-5.8,5.1-11.6,7.4-17.7c1.2-3,2.4-6.1,3.5-9.1c1.2-3,2.2-6,3.1-8.9
		c0.9-2.9,1.6-5.9,2-8.8c0.4-2.9,0.4-5.8,0.1-8.8c-0.7-5.9-2.7-11.8-5.8-17.3C450.8,162.5,446.9,157.3,442.5,152.3z"/>
</g>
<g>
	<path class="st5" d="M505.9,209.2c5.6,2,10.9,4.8,15.8,8.6c2.4,1.9,4.7,4,6.8,6.5c2,2.5,3.8,5.2,5.1,8.4c1.3,3.1,2,6.6,1.9,10.1
		c0,3.5-0.8,6.9-1.8,9.9c-2.1,6.1-5,11.3-7.7,16.5c-1.4,2.5-2.9,5.2-4.5,7.8c-1.6,2.6-3.4,5.1-5.2,7.5c-1.8,2.4-3.7,4.7-4.8,6.5
		c-0.6,0.9-0.9,1.9-1.2,3c-0.3,1.1-0.5,2.3-0.6,3.5c-0.4,4.8,1.3,10,3.8,14.9c2.6,5,6.1,9.7,9.7,14.4c-1.3-0.8-2.5-1.6-3.7-2.5
		c-1.2-0.9-2.4-1.8-3.5-2.8c-2.3-1.9-4.5-4.1-6.5-6.4c-2-2.4-3.7-5-5.1-8c-1.4-2.9-2.3-6.2-2.5-9.7c-0.1-1.7,0-3.5,0.3-5.2
		c0.3-1.7,0.8-3.6,1.6-5.3c0.8-1.7,1.7-3.1,2.5-4.4l2.4-3.7c1.6-2.4,3.1-4.7,4.5-7.1c1.4-2.4,2.7-4.9,4.2-7.5
		c1.4-2.5,2.8-5.1,4.1-7.6c1.3-2.5,2.5-5,3.5-7.4c1-2.4,1.7-4.8,1.9-7.1c0.2-2.3,0.1-4.7-0.5-7.1c-1.2-4.8-4.2-9.6-7.8-13.8
		C514.7,217,510.4,213.1,505.9,209.2z"/>
</g>
<rect x="234.8" y="358" class="st2" width="485.6" height="47.3"/>
</svg>
