<?xml version="1.0" encoding="utf-8"?>
<!-- Generator: Adobe Illustrator 22.1.0, SVG Export Plug-In . SVG Version: 6.00 Build 0)  -->
<svg version="1.1" id="Layer_1" xmlns="http://www.w3.org/2000/svg" xmlns:xlink="http://www.w3.org/1999/xlink" x="0px" y="0px"
	 viewBox="0 0 792 216" style="enable-background:new 0 0 792 216;" xml:space="preserve">
<style type="text/css">
	.st0{fill:none;}
	.st1{fill:none;stroke:#000000;stroke-width:0.4;}
	.st2{fill:none;stroke:#000000;stroke-width:4;}
	.st3{fill:none;stroke:#000000;stroke-width:2.88;}
	.st4{fill:url(#SVGID_3_);stroke:#000000;stroke-width:2;stroke-miterlimit:10;}
	.st5{fill:url(#SVGID_4_);stroke:#000000;stroke-width:2;stroke-miterlimit:10;}
	.st6{fill:#58595B;stroke:#000000;stroke-width:3;stroke-miterlimit:10;}
	.st7{fill:url(#SVGID_5_);stroke:#000000;stroke-width:2;stroke-miterlimit:10;}
	.st8{fill:#E6E7E8;stroke:#000000;stroke-width:2;stroke-miterlimit:10;}
	.st9{font-family:'LIQUIDO-Reguar';}
	.st10{font-size:36px;}
</style>
<pattern  y="216" width="28.8" height="28.8" patternUnits="userSpaceOnUse" id="_x31_0_dpi_50_x25_" viewBox="3.6 -32.4 28.8 28.8" style="overflow:visible;">
	<g>
		<rect x="3.6" y="-32.4" class="st0" width="28.8" height="28.8"/>
		<g>
			<rect x="3.6" y="-32.4" class="st0" width="28.8" height="28.8"/>
			<g>
				<path d="M32.4-36c2,0,3.6,1.6,3.6,3.6s-1.6,3.6-3.6,3.6s-3.6-1.6-3.6-3.6C28.8-34.4,30.4-36,32.4-36z"/>
				<path d="M18-36c2,0,3.6,1.6,3.6,3.6S20-28.8,18-28.8s-3.6-1.6-3.6-3.6S16-36,18-36z"/>
				<circle cx="32.4" cy="-18" r="3.6"/>
				<path d="M18-21.6c2,0,3.6,1.6,3.6,3.6S20-14.4,18-14.4S14.4-16,14.4-18S16-21.6,18-21.6z"/>
				<path d="M10.8-28.8c2,0,3.6,1.6,3.6,3.6s-1.6,3.6-3.6,3.6s-3.6-1.6-3.6-3.6C7.2-27.2,8.8-28.8,10.8-28.8z"/>
				<path d="M25.2-28.8c2,0,3.6,1.6,3.6,3.6s-1.6,3.6-3.6,3.6s-3.6-1.6-3.6-3.6S23.2-28.8,25.2-28.8z"/>
				<path d="M10.8-14.4c2,0,3.6,1.6,3.6,3.6s-1.6,3.6-3.6,3.6s-3.6-1.6-3.6-3.6C7.2-12.8,8.8-14.4,10.8-14.4z"/>
				<path d="M25.2-14.4c2,0,3.6,1.6,3.6,3.6s-1.6,3.6-3.6,3.6s-3.6-1.6-3.6-3.6S23.2-14.4,25.2-14.4z"/>
			</g>
			<g>
				<path d="M3.6-36c2,0,3.6,1.6,3.6,3.6s-1.6,3.6-3.6,3.6S0-30.4,0-32.4S1.6-36,3.6-36z"/>
				<circle cx="3.6" cy="-18" r="3.6"/>
			</g>
			<g>
				<path d="M32.4-7.2c2,0,3.6,1.6,3.6,3.6S34.4,0,32.4,0s-3.6-1.6-3.6-3.6C28.8-5.6,30.4-7.2,32.4-7.2z"/>
				<path d="M18-7.2c2,0,3.6,1.6,3.6,3.6S20,0,18,0s-3.6-1.6-3.6-3.6S16-7.2,18-7.2z"/>
			</g>
			<g>
				<path d="M3.6-7.2c2,0,3.6,1.6,3.6,3.6S5.6,0,3.6,0S0-1.6,0-3.6S1.6-7.2,3.6-7.2z"/>
			</g>
		</g>
	</g>
</pattern>
<pattern  y="216" width="70.8" height="72" patternUnits="userSpaceOnUse" id="SVGID_1_" viewBox="0 -72 70.8 72" style="overflow:visible;">
	<g>
		<rect y="-72" class="st0" width="70.8" height="72"/>
		<g>
			<rect y="-72" class="st0" width="70.8" height="72"/>
			<line class="st1" x1="35.4" y1="-72" x2="35.4" y2="0"/>
			<line class="st1" x1="11.8" y1="-72" x2="11.8" y2="0"/>
			<line class="st1" x1="59" y1="-72" x2="59" y2="0"/>
			<line class="st2" x1="30.8" y1="-72" x2="30.8" y2="0"/>
			<line class="st2" x1="7.2" y1="-72" x2="7.2" y2="0"/>
			<line class="st2" x1="54.4" y1="-72" x2="54.4" y2="0"/>
			<line class="st2" x1="16.4" y1="-72" x2="16.4" y2="0"/>
			<line class="st2" x1="40" y1="-72" x2="40" y2="0"/>
			<line class="st2" x1="63.6" y1="-72" x2="63.6" y2="0"/>
		</g>
	</g>
</pattern>
<pattern  y="216" width="72" height="72" patternUnits="userSpaceOnUse" id="SVGID_2_" viewBox="72.2 -72 72 72" style="overflow:visible;">
	<g>
		<rect x="72.2" y="-72" class="st0" width="72" height="72"/>
		<g>
			<rect x="72.2" y="-72" class="st0" width="72" height="72"/>
			<g>
				<line class="st3" x1="144" y1="-68.4" x2="216.5" y2="-68.4"/>
				<line class="st3" x1="144" y1="-54" x2="216.5" y2="-54"/>
				<line class="st3" x1="144" y1="-39.6" x2="216.5" y2="-39.6"/>
				<line class="st3" x1="144" y1="-25.2" x2="216.5" y2="-25.2"/>
				<line class="st3" x1="144" y1="-10.8" x2="216.5" y2="-10.8"/>
				<line class="st3" x1="144" y1="-61.2" x2="216.5" y2="-61.2"/>
				<line class="st3" x1="144" y1="-46.8" x2="216.5" y2="-46.8"/>
				<line class="st3" x1="144" y1="-32.4" x2="216.5" y2="-32.4"/>
				<line class="st3" x1="144" y1="-18" x2="216.5" y2="-18"/>
				<line class="st3" x1="144" y1="-3.6" x2="216.5" y2="-3.6"/>
			</g>
			<g>
				<line class="st3" x1="72" y1="-68.4" x2="144.5" y2="-68.4"/>
				<line class="st3" x1="72" y1="-54" x2="144.5" y2="-54"/>
				<line class="st3" x1="72" y1="-39.6" x2="144.5" y2="-39.6"/>
				<line class="st3" x1="72" y1="-25.2" x2="144.5" y2="-25.2"/>
				<line class="st3" x1="72" y1="-10.8" x2="144.5" y2="-10.8"/>
				<line class="st3" x1="72" y1="-61.2" x2="144.5" y2="-61.2"/>
				<line class="st3" x1="72" y1="-46.8" x2="144.5" y2="-46.8"/>
				<line class="st3" x1="72" y1="-32.4" x2="144.5" y2="-32.4"/>
				<line class="st3" x1="72" y1="-18" x2="144.5" y2="-18"/>
				<line class="st3" x1="72" y1="-3.6" x2="144.5" y2="-3.6"/>
			</g>
			<g>
				<line class="st3" x1="0" y1="-68.4" x2="72.5" y2="-68.4"/>
				<line class="st3" x1="0" y1="-54" x2="72.5" y2="-54"/>
				<line class="st3" x1="0" y1="-39.6" x2="72.5" y2="-39.6"/>
				<line class="st3" x1="0" y1="-25.2" x2="72.5" y2="-25.2"/>
				<line class="st3" x1="0" y1="-10.8" x2="72.5" y2="-10.8"/>
				<line class="st3" x1="0" y1="-61.2" x2="72.5" y2="-61.2"/>
				<line class="st3" x1="0" y1="-46.8" x2="72.5" y2="-46.8"/>
				<line class="st3" x1="0" y1="-32.4" x2="72.5" y2="-32.4"/>
				<line class="st3" x1="0" y1="-18" x2="72.5" y2="-18"/>
				<line class="st3" x1="0" y1="-3.6" x2="72.5" y2="-3.6"/>
			</g>
		</g>
	</g>
</pattern>
<pattern  id="SVGID_3_" xlink:href="#SVGID_1_" patternTransform="matrix(-1 0 0 1 1116.3708 -99.5179)">
</pattern>
<circle class="st4" cx="395.4" cy="90.7" r="52.7"/>
<pattern  id="SVGID_4_" xlink:href="#_x31_0_dpi_50_x25_" patternTransform="matrix(1 0 0 -1 13 -15678.6006)">
</pattern>
<circle class="st5" cx="245.3" cy="90.7" r="52.7"/>
<circle class="st6" cx="545.4" cy="90.7" r="52.7"/>
<pattern  id="SVGID_5_" xlink:href="#SVGID_2_" patternTransform="matrix(1 0 0 -1 -3858.4407 -8243.8271)">
</pattern>
<circle class="st7" cx="95.3" cy="90.7" r="52.7"/>
<circle class="st8" cx="695.4" cy="90.7" r="52.7"/>
<rect x="32" y="166.9" class="st0" width="122.2" height="33.9"/>
<text transform="matrix(1 0 0 1 47.8809 192.0577)" class="st9 st10">espresso</text>
<rect x="335" y="166.9" class="st0" width="122.2" height="33.9"/>
<text transform="matrix(1 0 0 1 373.4731 192.0577)" class="st9 st10">foam</text>
<rect x="182" y="166.9" class="st0" width="122.2" height="33.9"/>
<text transform="matrix(1 0 0 1 223.676 192.0577)" class="st9 st10">milk</text>
<rect x="485" y="166.9" class="st0" width="122.2" height="33.9"/>
<text transform="matrix(1 0 0 1 495.2332 192.0577)" class="st9 st10">chocolate</text>
<rect x="635" y="166.9" class="st0" width="122.2" height="33.9"/>
<text transform="matrix(1 0 0 1 667.8604 192.0577)" class="st9 st10">water</text>
</svg>
