<?xml version="1.0" encoding="utf-8"?>
<!-- Generator: Adobe Illustrator 22.1.0, SVG Export Plug-In . SVG Version: 6.00 Build 0)  -->
<svg version="1.1" id="Layer_1" xmlns="http://www.w3.org/2000/svg" xmlns:xlink="http://www.w3.org/1999/xlink" x="0px" y="0px"
	 viewBox="0 0 1000 1000" style="enable-background:new 0 0 1000 1000;" xml:space="preserve">
<style type="text/css">
	.st0{fill:none;}
	.st1{fill:none;stroke:#000000;stroke-width:7.2;}
	.st2{fill:none;stroke:#000000;stroke-width:0.5;}
	.st3{fill:#FDBA4A;}
	.st4{display:none;fill:#90B6D5;}
	.st5{fill:#FFFFFF;}
	.st6{fill:#EF4136;}
	.st7{font-family:'Bangers-Regular';}
	.st8{font-size:72px;}
	.st9{fill:url(#SVGID_3_);}
	.st10{fill:url(#SVGID_4_);}
	.st11{fill:url(#SVGID_5_);}
	.st12{fill:url(#SVGID_6_);}
</style>
<pattern  y="1000" width="28.8" height="28.8" patternUnits="userSpaceOnUse" id="_x31_0_dpi_50_x25_" viewBox="3.6 -32.4 28.8 28.8" style="overflow:visible;">
	<g>
		<rect x="3.6" y="-32.4" class="st0" width="28.8" height="28.8"/>
		<g>
			<rect x="3.6" y="-32.4" class="st0" width="28.8" height="28.8"/>
			<g>
				<path d="M32.4-36c2,0,3.6,1.6,3.6,3.6s-1.6,3.6-3.6,3.6s-3.6-1.6-3.6-3.6C28.8-34.4,30.4-36,32.4-36z"/>
				<path d="M18-36c2,0,3.6,1.6,3.6,3.6S20-28.8,18-28.8s-3.6-1.6-3.6-3.6S16-36,18-36z"/>
				<circle cx="32.4" cy="-18" r="3.6"/>
				<path d="M18-21.6c2,0,3.6,1.6,3.6,3.6S20-14.4,18-14.4S14.4-16,14.4-18S16-21.6,18-21.6z"/>
				<path d="M10.8-28.8c2,0,3.6,1.6,3.6,3.6s-1.6,3.6-3.6,3.6s-3.6-1.6-3.6-3.6C7.2-27.2,8.8-28.8,10.8-28.8z"/>
				<path d="M25.2-28.8c2,0,3.6,1.6,3.6,3.6s-1.6,3.6-3.6,3.6s-3.6-1.6-3.6-3.6S23.2-28.8,25.2-28.8z"/>
				<path d="M10.8-14.4c2,0,3.6,1.6,3.6,3.6s-1.6,3.6-3.6,3.6s-3.6-1.6-3.6-3.6C7.2-12.8,8.8-14.4,10.8-14.4z"/>
				<path d="M25.2-14.4c2,0,3.6,1.6,3.6,3.6s-1.6,3.6-3.6,3.6s-3.6-1.6-3.6-3.6S23.2-14.4,25.2-14.4z"/>
			</g>
			<g>
				<path d="M3.6-36c2,0,3.6,1.6,3.6,3.6s-1.6,3.6-3.6,3.6S0-30.4,0-32.4S1.6-36,3.6-36z"/>
				<circle cx="3.6" cy="-18" r="3.6"/>
			</g>
			<g>
				<path d="M32.4-7.2c2,0,3.6,1.6,3.6,3.6S34.4,0,32.4,0s-3.6-1.6-3.6-3.6C28.8-5.6,30.4-7.2,32.4-7.2z"/>
				<path d="M18-7.2c2,0,3.6,1.6,3.6,3.6S20,0,18,0s-3.6-1.6-3.6-3.6S16-7.2,18-7.2z"/>
			</g>
			<g>
				<path d="M3.6-7.2c2,0,3.6,1.6,3.6,3.6S5.6,0,3.6,0S0-1.6,0-3.6S1.6-7.2,3.6-7.2z"/>
			</g>
		</g>
	</g>
</pattern>
<pattern  y="1000" width="72" height="72" patternUnits="userSpaceOnUse" id="SVGID_1_" viewBox="72.2 -72 72 72" style="overflow:visible;">
	<g>
		<rect x="72.2" y="-72" class="st0" width="72" height="72"/>
		<g>
			<rect x="72.2" y="-72" class="st0" width="72" height="72"/>
			<g>
				<line class="st1" x1="144" y1="-66" x2="216.5" y2="-66"/>
				<line class="st1" x1="144" y1="-42" x2="216.5" y2="-42"/>
				<line class="st1" x1="144" y1="-18" x2="216.5" y2="-18"/>
				<line class="st1" x1="144" y1="-54" x2="216.5" y2="-54"/>
				<line class="st1" x1="144" y1="-30" x2="216.5" y2="-30"/>
				<line class="st1" x1="144" y1="-6" x2="216.5" y2="-6"/>
			</g>
			<g>
				<line class="st1" x1="72" y1="-66" x2="144.5" y2="-66"/>
				<line class="st1" x1="72" y1="-42" x2="144.5" y2="-42"/>
				<line class="st1" x1="72" y1="-18" x2="144.5" y2="-18"/>
				<line class="st1" x1="72" y1="-54" x2="144.5" y2="-54"/>
				<line class="st1" x1="72" y1="-30" x2="144.5" y2="-30"/>
				<line class="st1" x1="72" y1="-6" x2="144.5" y2="-6"/>
			</g>
			<g>
				<line class="st1" x1="0" y1="-66" x2="72.5" y2="-66"/>
				<line class="st1" x1="0" y1="-42" x2="72.5" y2="-42"/>
				<line class="st1" x1="0" y1="-18" x2="72.5" y2="-18"/>
				<line class="st1" x1="0" y1="-54" x2="72.5" y2="-54"/>
				<line class="st1" x1="0" y1="-30" x2="72.5" y2="-30"/>
				<line class="st1" x1="0" y1="-6" x2="72.5" y2="-6"/>
			</g>
		</g>
	</g>
</pattern>
<pattern  y="1000" width="72" height="72" patternUnits="userSpaceOnUse" id="SVGID_2_" viewBox="72.2 -72 72 72" style="overflow:visible;">
	<g>
		<rect x="72.2" y="-72" class="st0" width="72" height="72"/>
		<g>
			<rect x="72.2" y="-72" class="st0" width="72" height="72"/>
			<g>
				<line class="st1" x1="144" y1="-66" x2="216.5" y2="-66"/>
				<line class="st1" x1="144" y1="-42" x2="216.5" y2="-42"/>
				<line class="st1" x1="144" y1="-18" x2="216.5" y2="-18"/>
				<line class="st1" x1="144" y1="-54" x2="216.5" y2="-54"/>
				<line class="st1" x1="144" y1="-30" x2="216.5" y2="-30"/>
				<line class="st1" x1="144" y1="-6" x2="216.5" y2="-6"/>
			</g>
			<g>
				<line class="st1" x1="72" y1="-66" x2="144.5" y2="-66"/>
				<line class="st1" x1="72" y1="-42" x2="144.5" y2="-42"/>
				<line class="st1" x1="72" y1="-18" x2="144.5" y2="-18"/>
				<line class="st1" x1="72" y1="-54" x2="144.5" y2="-54"/>
				<line class="st1" x1="72" y1="-30" x2="144.5" y2="-30"/>
				<line class="st1" x1="72" y1="-6" x2="144.5" y2="-6"/>
			</g>
			<g>
				<line class="st1" x1="0" y1="-66" x2="72.5" y2="-66"/>
				<line class="st1" x1="0" y1="-42" x2="72.5" y2="-42"/>
				<line class="st1" x1="0" y1="-18" x2="72.5" y2="-18"/>
				<line class="st1" x1="0" y1="-54" x2="72.5" y2="-54"/>
				<line class="st1" x1="0" y1="-30" x2="72.5" y2="-30"/>
				<line class="st1" x1="0" y1="-6" x2="72.5" y2="-6"/>
			</g>
		</g>
	</g>
</pattern>
<pattern  y="1000" width="87.8" height="72" patternUnits="userSpaceOnUse" id="Scotch_Rule_4" viewBox="0 -72 87.8 72" style="overflow:visible;">
	<g>
		<rect y="-72" class="st0" width="87.8" height="72"/>
		<g>
			<rect y="-72" class="st0" width="87.8" height="72"/>
			<line class="st2" x1="43.9" y1="-72" x2="43.9" y2="0"/>
			<line class="st2" x1="14.6" y1="-72" x2="14.6" y2="0"/>
			<line class="st2" x1="73.2" y1="-72" x2="73.2" y2="0"/>
			<line class="st1" x1="49.8" y1="-72" x2="49.8" y2="0"/>
			<line class="st1" x1="20.5" y1="-72" x2="20.5" y2="0"/>
			<line class="st1" x1="79" y1="-72" x2="79" y2="0"/>
			<line class="st1" x1="8.8" y1="-72" x2="8.8" y2="0"/>
			<line class="st1" x1="38.1" y1="-72" x2="38.1" y2="0"/>
			<line class="st1" x1="67.4" y1="-72" x2="67.4" y2="0"/>
		</g>
	</g>
</pattern>
<rect x="-27.9" y="-27.4" class="st3" width="1054.8" height="1054.8"/>
<rect x="-0.7" y="0.6" class="st4" width="1000" height="1000"/>
<path class="st5" d="M817.6,401.2c1.8-15.3,2.7-31,2.7-46.9h-56.8c0,164.7-121.4,298.2-271.1,298.2S221.2,519,221.1,354.3h-56.8
	c0,164.8,100.5,303.8,237.7,346.9l-79.3,8.4l13.8,17.2h156.1h156.1l6.1-17.6l-72.6-7.9c68.3-21.4,127.6-66.5,169.9-126.8
	c56.4,1.8,86.2-12.9,108.8-61.9C879,473.8,860.6,416.3,817.6,401.2z M844.5,510.7c-22.8,38.4-42.3,48.6-82.2,48.6
	c26.4-41.9,44.9-90.3,53.2-142.5C849.3,431.2,862.2,480.9,844.5,510.7z"/>
<text transform="matrix(1 0 0 1 281.3497 848.8418)" class="st6 st7 st8">long macchiato</text>
<g>
	<path class="st5" d="M480.1,98.6c0.8,0.5,1.6,1,2.4,1.6c0.8,0.5,1.6,1.1,2.4,1.7c1.5,1.2,3.1,2.3,4.6,3.7c3,2.5,5.7,5.4,8.2,8.5
		c5,6.2,8.9,13.5,10.7,21.7c0.9,4.1,1.2,8.3,1,12.5s-0.9,8.3-1.9,12.2c-2,7.8-4.8,15-7.5,22.2c-1.4,3.5-2.8,7.2-4.4,10.8
		s-3.3,7.2-5.2,10.6l-2.7,5c-0.8,1.6-1.6,3.1-2.2,4.6s-1,3.1-1.3,4.8s-0.5,3.4-0.6,5.2c-0.4,7,1,14.2,3.6,21.2
		c2.5,7,6.1,13.7,9.9,20.5c-1.4-1.4-2.7-2.7-4.1-4.2c-1.3-1.5-2.6-2.9-3.8-4.5c-2.5-3-4.6-6.3-6.6-9.8c-3.9-6.9-6.6-14.8-6.9-23.2
		c-0.1-2.1,0-4.2,0.2-6.3s0.6-4.3,1.2-6.4c0.6-2.1,1.5-4.1,2.3-5.9l2.5-5.2c3.3-6.8,6-13.6,8.7-20.7c1.4-3.6,2.8-7.1,4.1-10.6
		c1.3-3.5,2.6-7,3.6-10.5c1.1-3.5,1.8-6.9,2.3-10.4c0.4-3.4,0.4-6.9,0-10.4c-0.9-7-3.4-13.9-7.1-20.3
		C490,110.3,485.3,104.4,480.1,98.6z"/>
</g>
<g>
	<path class="st5" d="M444.5,154.3c1.4,0.9,2.8,1.7,4.2,2.7c1.3,1,2.7,2,4,3.1c2.6,2.1,5,4.6,7.2,7.2c4.4,5.3,7.8,11.6,9.5,18.7
		c0.8,3.5,1.1,7.2,1,10.8s-0.8,7.2-1.6,10.5c-1.7,6.8-4.1,13-6.4,19.1c-1.2,3-2.4,6.2-3.8,9.3s-2.9,6.1-4.5,9.1l-2.3,4.3
		c-0.7,1.4-1.4,2.6-1.9,3.9c-0.5,1.3-0.9,2.5-1.1,4c-0.3,1.4-0.5,2.9-0.6,4.3c-0.4,5.9,0.7,12,2.8,18c2,6,5,11.8,8.2,17.6
		c-1.2-1.1-2.4-2.3-3.6-3.5c-1.1-1.2-2.3-2.5-3.3-3.8c-2.2-2.6-4.1-5.4-5.8-8.3c-3.4-5.9-5.8-12.7-6.2-20c-0.1-1.8-0.1-3.6,0.1-5.5
		c0.2-1.8,0.5-3.8,1.1-5.6c0.5-1.9,1.3-3.6,2-5.2l2.1-4.5c2.8-5.8,5.1-11.6,7.4-17.7c1.2-3,2.4-6.1,3.5-9.1c1.2-3,2.2-6,3.1-8.9
		s1.6-5.9,2-8.8c0.4-2.9,0.4-5.8,0.1-8.8c-0.7-5.9-2.7-11.8-5.8-17.3C452.8,164.5,448.9,159.3,444.5,154.3z"/>
</g>
<g>
	<path class="st5" d="M507.9,211.2c5.6,2,10.9,4.8,15.8,8.6c2.4,1.9,4.7,4,6.8,6.5c2,2.5,3.8,5.2,5.1,8.4c1.3,3.1,2,6.6,1.9,10.1
		c0,3.5-0.8,6.9-1.8,9.9c-2.1,6.1-5,11.3-7.7,16.5c-1.4,2.5-2.9,5.2-4.5,7.8c-1.6,2.6-3.4,5.1-5.2,7.5s-3.7,4.7-4.8,6.5
		c-0.6,0.9-0.9,1.9-1.2,3s-0.5,2.3-0.6,3.5c-0.4,4.8,1.3,10,3.8,14.9c2.6,5,6.1,9.7,9.7,14.4c-1.3-0.8-2.5-1.6-3.7-2.5
		s-2.4-1.8-3.5-2.8c-2.3-1.9-4.5-4.1-6.5-6.4c-2-2.4-3.7-5-5.1-8c-1.4-2.9-2.3-6.2-2.5-9.7c-0.1-1.7,0-3.5,0.3-5.2s0.8-3.6,1.6-5.3
		c0.8-1.7,1.7-3.1,2.5-4.4l2.4-3.7c1.6-2.4,3.1-4.7,4.5-7.1c1.4-2.4,2.7-4.9,4.2-7.5c1.4-2.5,2.8-5.1,4.1-7.6s2.5-5,3.5-7.4
		s1.7-4.8,1.9-7.1s0.1-4.7-0.5-7.1c-1.2-4.8-4.2-9.6-7.8-13.8C516.7,219,512.4,215.1,507.9,211.2z"/>
</g>
<path class="st5" d="M723.1,367.2H262.2c0,7.3,0.3,14.4,1,21.5h458.9C722.7,381.6,723,374.4,723.1,367.2z"/>
<path class="st5" d="M261.2,366.7c0,0.2,0,0.3,0,0.5H722c0-0.2,0-0.3,0-0.5H261.2z"/>
<pattern  id="SVGID_3_" xlink:href="#Scotch_Rule_4" patternTransform="matrix(1 0 0 -1 0 -16600)">
</pattern>
<path class="st9" d="M722.1,367.2H261.2c0,7.3,0.3,14.4,1,21.5h458.9C721.7,381.6,722,374.4,722.1,367.2z"/>
<path class="st5" d="M272.7,441.7h437.8c4.4-13.8,7.5-28.1,9.4-42.9H263.3C265.2,413.6,268.4,427.9,272.7,441.7z"/>
<pattern  id="SVGID_4_" xlink:href="#_x31_0_dpi_50_x25_" patternTransform="matrix(1 0 0 -1 -3.6 -16481.2012)">
</pattern>
<path class="st10" d="M272.7,441.7h437.8c4.4-13.8,7.5-28.1,9.4-42.9H263.3C265.2,413.6,268.4,427.9,272.7,441.7z"/>
<pattern  id="SVGID_5_" xlink:href="#SVGID_1_" patternTransform="matrix(0.6486 0 0 -0.8997 -5354.958 -14923.877)">
</pattern>
<polygon class="st11" points="710.6,441.7 272.7,441.7 272.7,441.7 710.5,441.7 "/>
<path class="st5" d="M491.6,606.5c98.4,0,182.4-64.2,215.5-154.6H276.2C309.2,542.2,393.2,606.5,491.6,606.5z"/>
<pattern  id="SVGID_6_" xlink:href="#SVGID_2_" patternTransform="matrix(0.6486 0 0 -0.8997 -5354.958 -14923.877)">
</pattern>
<path class="st12" d="M491.6,606.5c98.4,0,182.4-64.2,215.5-154.6H276.2C309.2,542.2,393.2,606.5,491.6,606.5z"/>
</svg>
