<?xml version="1.0" encoding="utf-8"?>
<!-- Generator: Adobe Illustrator 22.1.0, SVG Export Plug-In . SVG Version: 6.00 Build 0)  -->
<svg version="1.1" id="Layer_1" xmlns="http://www.w3.org/2000/svg" xmlns:xlink="http://www.w3.org/1999/xlink" x="0px" y="0px"
	 viewBox="0 0 1000 1000" style="enable-background:new 0 0 1000 1000;" xml:space="preserve">
<style type="text/css">
	.st0{fill:none;}
	.st1{fill:none;stroke:#000000;stroke-width:7.2;}
	.st2{fill:#F9B5AF;}
	.st3{fill:#FFFFFF;}
	.st4{fill:#EC008C;}
	.st5{font-family:'Bangers-Regular';}
	.st6{font-size:72px;}
	.st7{fill:url(#SVGID_2_);}
	.st8{fill:#D1D3D4;}
</style>
<pattern  y="1000" width="72" height="72" patternUnits="userSpaceOnUse" id="SVGID_1_" viewBox="72.2 -72 72 72" style="overflow:visible;">
	<g>
		<rect x="72.2" y="-72" class="st0" width="72" height="72"/>
		<g>
			<rect x="72.2" y="-72" class="st0" width="72" height="72"/>
			<g>
				<line class="st1" x1="144" y1="-66" x2="216.5" y2="-66"/>
				<line class="st1" x1="144" y1="-42" x2="216.5" y2="-42"/>
				<line class="st1" x1="144" y1="-18" x2="216.5" y2="-18"/>
				<line class="st1" x1="144" y1="-54" x2="216.5" y2="-54"/>
				<line class="st1" x1="144" y1="-30" x2="216.5" y2="-30"/>
				<line class="st1" x1="144" y1="-6" x2="216.5" y2="-6"/>
			</g>
			<g>
				<line class="st1" x1="72" y1="-66" x2="144.5" y2="-66"/>
				<line class="st1" x1="72" y1="-42" x2="144.5" y2="-42"/>
				<line class="st1" x1="72" y1="-18" x2="144.5" y2="-18"/>
				<line class="st1" x1="72" y1="-54" x2="144.5" y2="-54"/>
				<line class="st1" x1="72" y1="-30" x2="144.5" y2="-30"/>
				<line class="st1" x1="72" y1="-6" x2="144.5" y2="-6"/>
			</g>
			<g>
				<line class="st1" x1="0" y1="-66" x2="72.5" y2="-66"/>
				<line class="st1" x1="0" y1="-42" x2="72.5" y2="-42"/>
				<line class="st1" x1="0" y1="-18" x2="72.5" y2="-18"/>
				<line class="st1" x1="0" y1="-54" x2="72.5" y2="-54"/>
				<line class="st1" x1="0" y1="-30" x2="72.5" y2="-30"/>
				<line class="st1" x1="0" y1="-6" x2="72.5" y2="-6"/>
			</g>
		</g>
	</g>
</pattern>
<rect x="-14.1" y="-13.8" class="st2" width="1028.8" height="1028.8"/>
<path class="st3" d="M817.6,401.2c1.8-15.3,2.7-31,2.7-46.9h-56.8c0,164.7-121.4,298.2-271.1,298.2S221.2,519,221.1,354.3h-56.8
	c0,164.8,100.5,303.8,237.7,346.9l-79.3,8.4l13.8,17.2h156.1h156.1l6.1-17.6l-72.6-7.9c68.3-21.4,127.6-66.5,169.9-126.8
	c56.4,1.8,86.2-12.9,108.8-61.9C879,473.8,860.6,416.3,817.6,401.2z M844.5,510.7c-22.8,38.4-42.3,48.6-82.2,48.6
	c26.4-41.9,44.9-90.3,53.2-142.5C849.3,431.2,862.2,480.9,844.5,510.7z"/>
<text transform="matrix(1 0 0 1 364.5807 848.8418)" class="st4 st5 st6">ristretto</text>
<g>
	<path class="st3" d="M480.1,98.6c0.8,0.5,1.6,1,2.4,1.6c0.8,0.5,1.6,1.1,2.4,1.7c1.5,1.2,3.1,2.3,4.6,3.7c3,2.5,5.7,5.4,8.2,8.5
		c5,6.2,8.9,13.5,10.7,21.7c0.9,4.1,1.2,8.3,1,12.5s-0.9,8.3-1.9,12.2c-2,7.8-4.8,15-7.5,22.2c-1.4,3.5-2.8,7.2-4.4,10.8
		s-3.3,7.2-5.2,10.6l-2.7,5c-0.8,1.6-1.6,3.1-2.2,4.6s-1,3.1-1.3,4.8s-0.5,3.4-0.6,5.2c-0.4,7,1,14.2,3.6,21.2
		c2.5,7,6.1,13.7,9.9,20.5c-1.4-1.4-2.7-2.7-4.1-4.2c-1.3-1.5-2.6-2.9-3.8-4.5c-2.5-3-4.6-6.3-6.6-9.8c-3.9-6.9-6.6-14.8-6.9-23.2
		c-0.1-2.1,0-4.2,0.2-6.3s0.6-4.3,1.2-6.4c0.6-2.1,1.5-4.1,2.3-5.9l2.5-5.2c3.3-6.8,6-13.6,8.7-20.7c1.4-3.6,2.8-7.1,4.1-10.6
		c1.3-3.5,2.6-7,3.6-10.5c1.1-3.5,1.8-6.9,2.3-10.4c0.4-3.4,0.4-6.9,0-10.4c-0.9-7-3.4-13.9-7.1-20.3
		C490,110.3,485.3,104.4,480.1,98.6z"/>
</g>
<g>
	<path class="st3" d="M444.5,154.3c1.4,0.9,2.8,1.7,4.2,2.7c1.3,1,2.7,2,4,3.1c2.6,2.1,5,4.6,7.2,7.2c4.4,5.3,7.8,11.6,9.5,18.7
		c0.8,3.5,1.1,7.2,1,10.8s-0.8,7.2-1.6,10.5c-1.7,6.8-4.1,13-6.4,19.1c-1.2,3-2.4,6.2-3.8,9.3s-2.9,6.1-4.5,9.1l-2.3,4.3
		c-0.7,1.4-1.4,2.6-1.9,3.9c-0.5,1.3-0.9,2.5-1.1,4c-0.3,1.4-0.5,2.9-0.6,4.3c-0.4,5.9,0.7,12,2.8,18c2,6,5,11.8,8.2,17.6
		c-1.2-1.1-2.4-2.3-3.6-3.5c-1.1-1.2-2.3-2.5-3.3-3.8c-2.2-2.6-4.1-5.4-5.8-8.3c-3.4-5.9-5.8-12.7-6.2-20c-0.1-1.8-0.1-3.6,0.1-5.5
		c0.2-1.8,0.5-3.8,1.1-5.6c0.5-1.9,1.3-3.6,2-5.2l2.1-4.5c2.8-5.8,5.1-11.6,7.4-17.7c1.2-3,2.4-6.1,3.5-9.1c1.2-3,2.2-6,3.1-8.9
		s1.6-5.9,2-8.8c0.4-2.9,0.4-5.8,0.1-8.8c-0.7-5.9-2.7-11.8-5.8-17.3C452.8,164.5,448.9,159.3,444.5,154.3z"/>
</g>
<g>
	<path class="st3" d="M507.9,211.2c5.6,2,10.9,4.8,15.8,8.6c2.4,1.9,4.7,4,6.8,6.5c2,2.5,3.8,5.2,5.1,8.4c1.3,3.1,2,6.6,1.9,10.1
		c0,3.5-0.8,6.9-1.8,9.9c-2.1,6.1-5,11.3-7.7,16.5c-1.4,2.5-2.9,5.2-4.5,7.8c-1.6,2.6-3.4,5.1-5.2,7.5s-3.7,4.7-4.8,6.5
		c-0.6,0.9-0.9,1.9-1.2,3s-0.5,2.3-0.6,3.5c-0.4,4.8,1.3,10,3.8,14.9c2.6,5,6.1,9.7,9.7,14.4c-1.3-0.8-2.5-1.6-3.7-2.5
		s-2.4-1.8-3.5-2.8c-2.3-1.9-4.5-4.1-6.5-6.4c-2-2.4-3.7-5-5.1-8c-1.4-2.9-2.3-6.2-2.5-9.7c-0.1-1.7,0-3.5,0.3-5.2s0.8-3.6,1.6-5.3
		c0.8-1.7,1.7-3.1,2.5-4.4l2.4-3.7c1.6-2.4,3.1-4.7,4.5-7.1c1.4-2.4,2.7-4.9,4.2-7.5c1.4-2.5,2.8-5.1,4.1-7.6s2.5-5,3.5-7.4
		s1.7-4.8,1.9-7.1s0.1-4.7-0.5-7.1c-1.2-4.8-4.2-9.6-7.8-13.8C516.7,219,512.4,215.1,507.9,211.2z"/>
</g>
<path class="st0" d="M714.6,387.4H264.3c0,5.3,0.2,10.6,0.7,15.9h448.9C714.4,398,714.6,392.7,714.6,387.4z"/>
<path class="st3" d="M713.9,403.3H265c3.8,43.4,22.7,85.2,51.9,119.3h346.4C692,488.5,710.3,446.7,713.9,403.3z"/>
<pattern  id="SVGID_2_" xlink:href="#SVGID_1_" patternTransform="matrix(0.6337 0 0 -0.757 -5578.6528 -12787.5713)">
</pattern>
<path class="st7" d="M713.9,403.3H265c3.8,43.4,22.7,85.2,51.9,119.3h346.4C692,488.5,710.3,446.7,713.9,403.3z"/>
<path class="st8" d="M491.2,604.6c69.7,0,131.4-33.2,172.2-82H317C358.7,571.4,421.6,604.6,491.2,604.6z"/>
</svg>
