<?xml version="1.0" encoding="utf-8"?>
<!-- Generator: Adobe Illustrator 22.1.0, SVG Export Plug-In . SVG Version: 6.00 Build 0)  -->
<svg version="1.1" id="Layer_1" xmlns="http://www.w3.org/2000/svg" xmlns:xlink="http://www.w3.org/1999/xlink" x="0px" y="0px"
	 viewBox="0 0 1000 1000" style="enable-background:new 0 0 1000 1000;" xml:space="preserve">
<style type="text/css">
	.st0{fill:none;}
	.st1{fill:none;stroke:#000000;stroke-width:7.2;}
	.st2{fill:none;stroke:#000000;stroke-width:0.5;}
	.st3{fill:#90B6D5;}
	.st4{fill:#FFFFFF;}
	.st5{fill:#2B3990;}
	.st6{font-family:'Bangers-Regular';}
	.st7{font-size:72px;}
	.st8{fill:url(#SVGID_1_);}
	.st9{fill:url(#Scotch_Rule_4);}
	.st10{fill:url(#_x31_0_dpi_50_x25_);}
</style>
<pattern  width="28.8" height="28.8" patternUnits="userSpaceOnUse" id="_x31_0_dpi_50_x25_" viewBox="3.6 -32.4 28.8 28.8" style="overflow:visible;">
	<g>
		<rect x="3.6" y="-32.4" class="st0" width="28.8" height="28.8"/>
		<g>
			<path d="M32.4,0c2,0,3.6-1.6,3.6-3.6c0-2-1.6-3.6-3.6-3.6s-3.6,1.6-3.6,3.6C28.8-1.6,30.4,0,32.4,0z"/>
			<path d="M18,0c2,0,3.6-1.6,3.6-3.6c0-2-1.6-3.6-3.6-3.6c-2,0-3.6,1.6-3.6,3.6C14.4-1.6,16,0,18,0z"/>
			<circle cx="32.4" cy="-18" r="3.6"/>
			<path d="M18-14.4c2,0,3.6-1.6,3.6-3.6c0-2-1.6-3.6-3.6-3.6c-2,0-3.6,1.6-3.6,3.6C14.4-16,16-14.4,18-14.4z"/>
			<path d="M10.8-7.2c2,0,3.6-1.6,3.6-3.6c0-2-1.6-3.6-3.6-3.6c-2,0-3.6,1.6-3.6,3.6C7.2-8.8,8.8-7.2,10.8-7.2z"/>
			<path d="M25.2-7.2c2,0,3.6-1.6,3.6-3.6c0-2-1.6-3.6-3.6-3.6s-3.6,1.6-3.6,3.6C21.6-8.8,23.2-7.2,25.2-7.2z"/>
			<path d="M10.8-21.6c2,0,3.6-1.6,3.6-3.6c0-2-1.6-3.6-3.6-3.6c-2,0-3.6,1.6-3.6,3.6C7.2-23.2,8.8-21.6,10.8-21.6z"/>
			<path d="M25.2-21.6c2,0,3.6-1.6,3.6-3.6c0-2-1.6-3.6-3.6-3.6s-3.6,1.6-3.6,3.6C21.6-23.2,23.2-21.6,25.2-21.6z"/>
		</g>
		<g>
			<path d="M3.6,0c2,0,3.6-1.6,3.6-3.6c0-2-1.6-3.6-3.6-3.6S0-5.6,0-3.6C0-1.6,1.6,0,3.6,0z"/>
			<circle cx="3.6" cy="-18" r="3.6"/>
		</g>
		<g>
			<path d="M32.4-28.8c2,0,3.6-1.6,3.6-3.6c0-2-1.6-3.6-3.6-3.6s-3.6,1.6-3.6,3.6C28.8-30.4,30.4-28.8,32.4-28.8z"/>
			<path d="M18-28.8c2,0,3.6-1.6,3.6-3.6c0-2-1.6-3.6-3.6-3.6c-2,0-3.6,1.6-3.6,3.6C14.4-30.4,16-28.8,18-28.8z"/>
		</g>
		<g>
			<path d="M3.6-28.8c2,0,3.6-1.6,3.6-3.6c0-2-1.6-3.6-3.6-3.6S0-34.4,0-32.4C0-30.4,1.6-28.8,3.6-28.8z"/>
		</g>
	</g>
</pattern>
<pattern  width="72" height="72" patternUnits="userSpaceOnUse" id="_x36__lpi_60_x25_" viewBox="72.2 -72 72 72" style="overflow:visible;">
	<g>
		<rect x="72.2" y="-72" class="st0" width="72" height="72"/>
		<g>
			<line class="st1" x1="144" y1="-6" x2="216.5" y2="-6"/>
			<line class="st1" x1="144" y1="-30" x2="216.5" y2="-30"/>
			<line class="st1" x1="144" y1="-54" x2="216.5" y2="-54"/>
			<line class="st1" x1="144" y1="-18" x2="216.5" y2="-18"/>
			<line class="st1" x1="144" y1="-42" x2="216.5" y2="-42"/>
			<line class="st1" x1="144" y1="-66" x2="216.5" y2="-66"/>
		</g>
		<g>
			<line class="st1" x1="72" y1="-6" x2="144.5" y2="-6"/>
			<line class="st1" x1="72" y1="-30" x2="144.5" y2="-30"/>
			<line class="st1" x1="72" y1="-54" x2="144.5" y2="-54"/>
			<line class="st1" x1="72" y1="-18" x2="144.5" y2="-18"/>
			<line class="st1" x1="72" y1="-42" x2="144.5" y2="-42"/>
			<line class="st1" x1="72" y1="-66" x2="144.5" y2="-66"/>
		</g>
		<g>
			<line class="st1" x1="0" y1="-6" x2="72.5" y2="-6"/>
			<line class="st1" x1="0" y1="-30" x2="72.5" y2="-30"/>
			<line class="st1" x1="0" y1="-54" x2="72.5" y2="-54"/>
			<line class="st1" x1="0" y1="-18" x2="72.5" y2="-18"/>
			<line class="st1" x1="0" y1="-42" x2="72.5" y2="-42"/>
			<line class="st1" x1="0" y1="-66" x2="72.5" y2="-66"/>
		</g>
	</g>
</pattern>
<pattern  width="87.8" height="72" patternUnits="userSpaceOnUse" id="Scotch_Rule_4" viewBox="0 -72 87.8 72" style="overflow:visible;">
	<g>
		<rect y="-72" class="st0" width="87.8" height="72"/>
		<line class="st2" x1="43.9" y1="0" x2="43.9" y2="-72"/>
		<line class="st2" x1="14.6" y1="0" x2="14.6" y2="-72"/>
		<line class="st2" x1="73.2" y1="0" x2="73.2" y2="-72"/>
		<line class="st1" x1="49.8" y1="0" x2="49.8" y2="-72"/>
		<line class="st1" x1="20.5" y1="0" x2="20.5" y2="-72"/>
		<line class="st1" x1="79" y1="0" x2="79" y2="-72"/>
		<line class="st1" x1="8.8" y1="0" x2="8.8" y2="-72"/>
		<line class="st1" x1="38.1" y1="0" x2="38.1" y2="-72"/>
		<line class="st1" x1="67.4" y1="0" x2="67.4" y2="-72"/>
	</g>
</pattern>
<rect x="-32.2" y="-32.2" class="st3" width="1064.4" height="1064.4"/>
<path class="st4" d="M817.6,401.2c1.8-15.3,2.7-31,2.7-46.9h-56.8C763.5,519,642.1,652.5,492.4,652.5S221.2,519,221.1,354.3h-56.8
	c0,164.8,100.5,303.8,237.7,346.9l-79.3,8.4l13.8,17.2h156.1h156.1l6.1-17.6l-72.6-7.9c68.3-21.4,127.6-66.5,169.9-126.8
	c56.4,1.8,86.2-12.9,108.8-61.9C879,473.8,860.6,416.3,817.6,401.2z M844.5,510.7c-22.8,38.4-42.3,48.6-82.2,48.6
	c26.4-41.9,44.9-90.3,53.2-142.5C849.3,431.2,862.2,480.9,844.5,510.7z"/>
<text transform="matrix(1 0 0 1 266.086 848.8418)" class="st5 st6 st7">Short macchiato</text>
<g>
	<path class="st4" d="M480.1,98.6c0.8,0.5,1.6,1,2.4,1.6c0.8,0.5,1.6,1.1,2.4,1.7c1.5,1.2,3.1,2.3,4.6,3.7c3,2.5,5.7,5.4,8.2,8.5
		c5,6.2,8.9,13.5,10.7,21.7c0.9,4.1,1.2,8.3,1,12.5c-0.2,4.2-0.9,8.3-1.9,12.2c-2,7.8-4.8,15-7.5,22.2c-1.4,3.5-2.8,7.2-4.4,10.8
		c-1.6,3.6-3.3,7.2-5.2,10.6l-2.7,5c-0.8,1.6-1.6,3.1-2.2,4.6c-0.6,1.5-1,3.1-1.3,4.8c-0.3,1.7-0.5,3.4-0.6,5.2
		c-0.4,7,1,14.2,3.6,21.2c2.5,7,6.1,13.7,9.9,20.5c-1.4-1.4-2.7-2.7-4.1-4.2c-1.3-1.5-2.6-2.9-3.8-4.5c-2.5-3-4.6-6.3-6.6-9.8
		c-3.9-6.9-6.6-14.8-6.9-23.2c-0.1-2.1,0-4.2,0.2-6.3c0.2-2.1,0.6-4.3,1.2-6.4c0.6-2.1,1.5-4.1,2.3-5.9l2.5-5.2
		c3.3-6.8,6-13.6,8.7-20.7c1.4-3.6,2.8-7.1,4.1-10.6c1.3-3.5,2.6-7,3.6-10.5c1.1-3.5,1.8-6.9,2.3-10.4c0.4-3.4,0.4-6.9,0-10.4
		c-0.9-7-3.4-13.9-7.1-20.3C490,110.3,485.3,104.4,480.1,98.6z"/>
</g>
<g>
	<path class="st4" d="M444.5,154.3c1.4,0.9,2.8,1.7,4.2,2.7c1.3,1,2.7,2,4,3.1c2.6,2.1,5,4.6,7.2,7.2c4.4,5.3,7.8,11.6,9.5,18.7
		c0.8,3.5,1.1,7.2,1,10.8c-0.1,3.6-0.8,7.2-1.6,10.5c-1.7,6.8-4.1,13-6.4,19.1c-1.2,3-2.4,6.2-3.8,9.3c-1.4,3.1-2.9,6.1-4.5,9.1
		l-2.3,4.3c-0.7,1.4-1.4,2.6-1.9,3.9c-0.5,1.3-0.9,2.5-1.1,4c-0.3,1.4-0.5,2.9-0.6,4.3c-0.4,5.9,0.7,12,2.8,18c2,6,5,11.8,8.2,17.6
		c-1.2-1.1-2.4-2.3-3.6-3.5c-1.1-1.2-2.3-2.5-3.3-3.8c-2.2-2.6-4.1-5.4-5.8-8.3c-3.4-5.9-5.8-12.7-6.2-20c-0.1-1.8-0.1-3.6,0.1-5.5
		c0.2-1.8,0.5-3.8,1.1-5.6c0.5-1.9,1.3-3.6,2-5.2l2.1-4.5c2.8-5.8,5.1-11.6,7.4-17.7c1.2-3,2.4-6.1,3.5-9.1c1.2-3,2.2-6,3.1-8.9
		c0.9-2.9,1.6-5.9,2-8.8c0.4-2.9,0.4-5.8,0.1-8.8c-0.7-5.9-2.7-11.8-5.8-17.3C452.8,164.5,448.9,159.3,444.5,154.3z"/>
</g>
<g>
	<path class="st4" d="M507.9,211.2c5.6,2,10.9,4.8,15.8,8.6c2.4,1.9,4.7,4,6.8,6.5c2,2.5,3.8,5.2,5.1,8.4c1.3,3.1,2,6.6,1.9,10.1
		c0,3.5-0.8,6.9-1.8,9.9c-2.1,6.1-5,11.3-7.7,16.5c-1.4,2.5-2.9,5.2-4.5,7.8c-1.6,2.6-3.4,5.1-5.2,7.5c-1.8,2.4-3.7,4.7-4.8,6.5
		c-0.6,0.9-0.9,1.9-1.2,3c-0.3,1.1-0.5,2.3-0.6,3.5c-0.4,4.8,1.3,10,3.8,14.9c2.6,5,6.1,9.7,9.7,14.4c-1.3-0.8-2.5-1.6-3.7-2.5
		c-1.2-0.9-2.4-1.8-3.5-2.8c-2.3-1.9-4.5-4.1-6.5-6.4c-2-2.4-3.7-5-5.1-8c-1.4-2.9-2.3-6.2-2.5-9.7c-0.1-1.7,0-3.5,0.3-5.2
		c0.3-1.7,0.8-3.6,1.6-5.3c0.8-1.7,1.7-3.1,2.5-4.4l2.4-3.7c1.6-2.4,3.1-4.7,4.5-7.1c1.4-2.4,2.7-4.9,4.2-7.5
		c1.4-2.5,2.8-5.1,4.1-7.6c1.3-2.5,2.5-5,3.5-7.4c1-2.4,1.7-4.8,1.9-7.1c0.2-2.3,0.1-4.7-0.5-7.1c-1.2-4.8-4.2-9.6-7.8-13.8
		C516.7,219,512.4,215.1,507.9,211.2z"/>
</g>
<path class="st0" d="M715.6,389.4H265.3c0,0.6,0,1.2,0,1.8h450.2C715.6,390.6,715.6,390,715.6,389.4z"/>
<path class="st4" d="M492.2,606.6c86.6,0,160.9-51.3,198-120.1H291.5C329.6,555.3,405.6,606.6,492.2,606.6z"/>
<pattern  id="SVGID_1_" xlink:href="#_x36__lpi_60_x25_" patternTransform="matrix(0.6337 0 0 0.757 -2714.3206 -1789.785)">
</pattern>
<path class="st8" d="M492.2,606.6c86.6,0,160.9-51.3,198-120.1H291.5C329.6,555.3,405.6,606.6,492.2,606.6z"/>
<path class="st4" d="M266,405.3c0.4,4.6,1,9.2,1.7,13.8h445.5c0.7-4.6,1.3-9.2,1.7-13.8H266z"/>
<path class="st9" d="M266,405.3c0.4,4.6,1,9.2,1.7,13.8h445.5c0.7-4.6,1.3-9.2,1.7-13.8H266z"/>
<path class="st4" d="M284.9,473.8h411.7c6.1-13.3,10.9-27.1,14.1-41.3H270.4C273.7,446.7,278.6,460.5,284.9,473.8z"/>
<path class="st10" d="M284.9,473.8h411.7c6.1-13.3,10.9-27.1,14.1-41.3H270.4C273.7,446.7,278.6,460.5,284.9,473.8z"/>
</svg>
